<?xml version="1.0" standalone="no"?>
<!DOCTYPE svg PUBLIC "-//W3C//DTD SVG 20010904//EN"
 "http://www.w3.org/TR/2001/REC-SVG-20010904/DTD/svg10.dtd">
<svg version="1.0" xmlns="http://www.w3.org/2000/svg"
 width="720.000000pt" height="720.000000pt" viewBox="0 0 720.000000 720.000000"
 preserveAspectRatio="xMidYMid meet">
<metadata>
Created by potrace 1.16, written by Peter Selinger 2001-2019
</metadata>
<g transform="translate(0.000000,720.000000) scale(0.100000,-0.100000)"
fill="#000000" stroke="none">
<path d="M1560 6865 c-333 -10 -358 -13 -405 -34 -27 -12 -63 -34 -79 -49 -36
-34 -89 -115 -106 -164 -10 -28 -20 -38 -43 -42 -17 -3 -36 -11 -44 -17 -19
-16 -16 -70 7 -147 18 -62 20 -126 34 -832 8 -421 17 -777 21 -792 7 -27 7
-27 -29 -16 -49 15 -70 -2 -61 -51 11 -60 17 -64 58 -36 l37 26 0 -78 c0 -43
-5 -131 -10 -195 -10 -117 -10 -117 19 -185 l30 -68 -27 -9 c-43 -14 -52 -26
-52 -70 0 -48 30 -86 68 -86 17 0 22 -6 22 -27 0 -16 28 -142 62 -280 50 -203
66 -253 79 -253 34 0 40 24 30 108 -6 44 -19 105 -30 136 l-19 56 36 0 c20 0
51 -9 67 -20 38 -25 55 -25 55 1 0 16 5 20 28 17 22 -2 32 -13 54 -58 22 -47
108 -317 108 -341 0 -5 -11 -9 -25 -9 -21 0 -25 -5 -25 -28 0 -15 5 -33 10
-38 7 -7 4 -16 -10 -29 -36 -32 -19 -157 26 -190 13 -9 14 -18 5 -49 -8 -32
-7 -45 9 -76 l19 -38 -35 11 c-28 9 -38 8 -50 -5 -14 -13 -13 -20 8 -62 18
-39 20 -50 10 -66 -20 -32 -14 -44 32 -69 25 -13 53 -32 63 -44 18 -20 18 -20
-9 -13 -20 4 -42 -1 -76 -18 -47 -24 -154 -56 -186 -56 -12 0 -16 11 -16 48 0
30 -9 64 -25 95 -30 60 -42 132 -25 152 9 11 10 18 1 29 -17 20 -48 116 -56
174 -6 46 -10 52 -31 52 -14 0 -24 -6 -24 -15 0 -8 14 -130 31 -272 28 -228
30 -269 21 -353 -6 -57 -6 -99 -1 -106 6 -7 6 -30 -1 -57 -12 -56 -5 -97 29
-162 15 -28 28 -74 31 -105 l5 -55 58 -31 c57 -30 60 -33 91 -112 41 -101 61
-132 86 -132 28 0 29 65 1 79 -22 12 -41 60 -41 102 0 29 13 38 25 19 3 -5 30
-10 60 -10 46 0 54 -3 57 -21 3 -18 11 -14 69 34 l65 54 -9 88 c-6 57 -6 103
0 132 9 36 8 47 -7 66 -51 65 -79 156 -60 193 10 18 10 33 1 69 -10 42 -9 50
9 79 25 41 25 70 1 104 -14 22 -19 53 -24 153 -4 92 -11 141 -27 185 -35 95
-35 107 1 219 32 104 43 118 75 97 17 -11 40 -62 53 -119 7 -28 39 -231 71
-450 49 -336 56 -400 45 -413 -16 -18 -7 -147 20 -290 19 -98 91 -349 133
-465 23 -62 27 -84 19 -97 -11 -16 -9 -27 20 -106 3 -6 -2 -12 -11 -12 -20 0
-48 -43 -41 -62 4 -9 22 -24 40 -34 31 -16 33 -20 20 -34 -8 -9 -15 -32 -15
-51 0 -75 83 -143 211 -174 96 -22 119 -20 119 10 0 20 -5 25 -25 25 -55 0
-105 43 -105 89 0 17 -6 21 -32 21 -18 0 -40 5 -48 10 -22 14 11 12 90 -5 91
-20 100 -19 100 9 0 20 -8 27 -50 41 -89 30 -148 98 -116 134 12 14 10 26 -19
96 -25 59 -31 83 -23 93 8 10 6 17 -10 28 -13 8 -22 26 -22 40 0 24 -25 57
-51 66 -11 5 -12 8 -1 19 21 23 14 39 -19 39 -38 0 -35 24 4 28 34 4 34 20 7
144 -22 96 -21 118 5 118 13 0 15 5 9 23 -8 21 -9 41 -4 102 1 17 -1 57 -5 91
l-8 61 29 7 c36 10 54 24 54 45 0 9 22 28 49 44 164 92 228 180 170 233 -18
16 -20 25 -13 69 10 73 6 139 -17 241 -11 49 -20 115 -19 148 1 53 -2 62 -30
92 l-32 32 22 69 c26 81 56 133 76 133 10 0 13 6 10 18 -3 9 -12 69 -21 132
-9 63 -18 123 -21 133 -4 12 0 17 13 17 15 0 24 -16 41 -69 24 -74 59 -121 92
-121 26 0 25 7 -5 76 -35 79 -75 210 -75 245 0 21 -19 55 -65 116 -68 90 -74
103 -51 103 8 0 19 -14 25 -30 12 -35 60 -60 116 -60 31 0 35 3 35 25 0 21 -6
26 -41 31 -70 12 -89 52 -44 94 17 16 22 27 15 34 -20 20 -9 35 30 46 33 9 40
15 40 35 0 24 -3 25 -57 25 -54 0 -55 1 -40 18 27 30 21 57 -15 73 -41 17 -49
56 -18 84 26 24 26 29 -10 74 -32 39 -70 127 -70 161 0 13 -7 20 -20 20 -17 0
-19 5 -14 33 4 17 24 60 47 95 47 73 87 179 87 227 l0 35 55 0 c43 0 64 -6
102 -30 59 -37 83 -39 83 -5 0 21 -5 25 -30 25 -16 0 -30 5 -30 11 0 13 79 49
124 56 l33 5 7 -51 c4 -29 4 -67 0 -86 -8 -47 14 -55 72 -26 25 11 47 21 49
21 3 0 -6 -25 -20 -56 -14 -31 -25 -64 -25 -74 0 -9 18 -58 40 -110 23 -51 39
-94 38 -95 -2 -2 -19 -7 -38 -12 -28 -7 -36 -15 -38 -36 -3 -25 -1 -27 33 -27
42 0 39 -15 -6 -25 -23 -5 -28 -10 -20 -18 16 -16 14 -67 -4 -118 -19 -52 -41
-79 -67 -79 -13 0 -18 -7 -18 -30 0 -31 22 -50 59 -50 26 0 26 -7 1 -45 -26
-39 -26 -65 0 -65 13 0 20 -7 20 -19 0 -11 23 -36 55 -61 65 -50 115 -105 115
-125 0 -18 -31 -20 -49 -2 -10 10 -12 6 -9 -18 2 -22 9 -31 28 -35 19 -4 26
-13 28 -38 3 -31 2 -32 -37 -32 -55 0 -54 -12 9 -158 51 -118 57 -141 41 -157
-5 -6 8 -98 35 -230 34 -174 43 -242 44 -325 0 -58 4 -121 10 -139 7 -24 6
-39 -2 -48 -8 -10 -8 -24 1 -53 9 -30 9 -44 0 -58 -9 -15 -9 -37 0 -98 10 -68
9 -111 -11 -310 l-22 -231 21 -51 c14 -33 18 -52 11 -54 -8 -3 -4 -84 11 -267
18 -208 21 -271 12 -306 -10 -39 -7 -68 20 -212 l31 -168 -23 -97 c-21 -91
-22 -104 -10 -190 11 -85 11 -100 -8 -181 l-21 -89 22 -18 c19 -15 20 -20 9
-34 -11 -13 -11 -19 2 -38 31 -44 43 -56 81 -82 34 -23 49 -26 118 -26 l79 0
93 81 94 81 6 67 c3 36 8 167 12 291 6 222 6 227 -25 390 -21 114 -27 166 -20
171 8 5 5 54 -11 166 l-23 160 22 66 c21 61 21 72 10 147 -8 60 -9 84 0 93 15
15 14 54 -1 60 -10 3 -10 9 -1 26 7 11 13 35 13 53 0 43 -26 151 -44 186 -13
24 -12 35 10 98 13 39 31 113 40 166 17 93 17 96 -5 158 l-21 64 31 33 32 32
-6 113 c-5 114 -40 296 -77 404 -13 38 -17 61 -10 69 6 7 -8 61 -44 163 l-54
152 20 67 c19 64 20 91 3 171 -7 28 -5 32 14 32 26 0 26 13 3 105 -16 62 -21
70 -44 73 -22 3 -26 -2 -32 -32 -14 -75 -26 -46 -26 63 0 104 1 111 20 111 29
0 26 59 -10 220 -16 73 -30 136 -30 141 0 5 14 9 30 9 30 0 30 1 30 55 0 43
-9 76 -44 154 l-44 100 -3 153 c-3 151 -3 154 25 208 46 89 84 139 175 233 90
93 147 136 160 121 5 -5 21 -46 36 -91 24 -74 29 -83 51 -83 16 0 24 6 24 17
0 29 -51 157 -68 171 -14 11 -14 12 0 12 8 0 42 17 75 39 61 40 103 92 103
130 0 14 6 21 20 21 20 0 20 -7 20 -360 l0 -360 -27 -6 c-16 -3 -48 -12 -73
-20 -25 -9 -56 -17 -70 -18 -49 -5 -136 -29 -172 -48 -28 -13 -38 -25 -38 -42
0 -19 5 -22 23 -20 12 2 90 15 173 29 194 32 184 32 184 -10 0 -38 -20 -55
-64 -55 -31 0 -56 -24 -56 -55 0 -13 10 -48 21 -79 18 -46 26 -56 45 -56 13 0
24 -3 24 -7 0 -5 -20 -87 -45 -183 -25 -96 -45 -182 -45 -191 0 -9 9 -27 20
-41 17 -23 18 -29 6 -75 -15 -57 -58 -124 -194 -302 -84 -110 -93 -127 -88
-154 12 -60 31 -77 86 -77 64 0 72 12 110 158 10 39 13 42 45 42 28 0 35 -4
35 -20 0 -30 21 -69 42 -75 15 -5 18 -17 18 -77 0 -53 5 -76 19 -97 l19 -27
-40 -52 -41 -52 22 -24 c29 -31 60 -24 68 15 7 37 34 38 62 3 11 -14 28 -61
38 -105 18 -79 29 -93 53 -63 7 8 25 14 38 12 21 -2 29 -13 44 -58 10 -30 22
-58 26 -62 4 -4 41 2 82 13 60 17 80 19 108 11 32 -10 39 -8 77 19 41 29 43
34 47 90 3 37 11 66 21 76 14 14 14 19 2 44 -13 24 -45 179 -45 215 0 8 6 14
14 14 24 0 29 19 16 65 -7 25 -10 52 -6 60 5 14 12 12 46 -15 31 -25 46 -31
66 -26 18 5 32 2 45 -10 17 -15 21 -14 59 16 38 30 51 62 30 75 -19 12 -10 31
20 42 47 18 38 42 -40 108 -38 33 -70 62 -70 65 0 3 24 29 53 58 l53 52 41
-42 c38 -39 44 -53 69 -153 14 -60 37 -132 50 -160 15 -32 20 -53 14 -59 -17
-17 -11 -29 45 -95 34 -41 51 -67 44 -72 -20 -12 2 -72 37 -102 31 -26 34 -34
34 -81 0 -39 5 -57 19 -70 26 -23 75 -18 79 9 9 46 22 36 22 -16 l0 -56 43
-12 c23 -7 52 -22 64 -33 19 -18 30 -20 80 -14 131 16 180 41 202 102 24 69
111 246 136 279 13 18 29 53 36 79 7 29 22 55 40 70 29 25 29 25 29 139 l0
114 38 7 c47 7 83 43 117 118 26 58 85 272 85 312 0 11 21 55 45 96 61 100 71
138 45 165 -14 15 -17 24 -9 32 7 7 4 33 -11 84 -23 86 -25 122 -6 138 10 9
16 8 26 -4 15 -18 175 -22 186 -4 4 7 14 0 25 -18 16 -24 19 -48 19 -190 l0
-161 -34 -34 c-26 -26 -37 -49 -50 -105 -18 -82 -22 -279 -6 -364 10 -52 8
-60 -30 -154 -22 -54 -40 -104 -40 -111 0 -22 20 -26 46 -9 14 9 28 14 31 12
11 -12 20 -76 12 -88 -11 -18 -12 -256 -1 -261 5 -1 27 -30 49 -64 23 -33 58
-75 78 -92 31 -28 43 -32 90 -32 l55 0 0 -50 c0 -37 4 -50 14 -50 22 0 156
122 213 193 68 83 85 120 91 192 4 53 1 67 -19 99 -18 27 -30 36 -45 33 -20
-3 -22 3 -33 77 -6 45 -11 146 -11 226 0 112 -5 162 -20 220 -28 106 -28 263
0 305 19 29 20 48 20 457 0 392 2 434 20 510 15 61 20 118 20 214 l0 130 50
13 c37 9 57 22 75 45 40 53 35 57 -57 54 l-83 -3 2 -44 c2 -34 -1 -41 -10 -32
-7 7 -14 55 -17 119 l-5 107 -46 31 c-37 24 -44 33 -35 46 7 12 3 26 -19 58
-24 34 -33 41 -54 37 -14 -3 -42 3 -61 13 -41 21 -146 50 -182 50 -13 0 -29
-9 -36 -20 -8 -14 -23 -20 -47 -20 -20 0 -43 -8 -53 -18 -14 -14 -23 -15 -45
-8 -24 9 -32 6 -68 -30 -29 -29 -39 -46 -37 -65 2 -18 -9 -39 -34 -68 -20 -24
-40 -57 -44 -73 -3 -17 -28 -81 -54 -142 -26 -61 -58 -145 -70 -186 -12 -41
-40 -114 -61 -161 -51 -114 -125 -381 -141 -509 -5 -40 -34 -37 -42 4 -5 27
-13 37 -32 42 -37 10 -50 -9 -74 -111 -11 -49 -30 -105 -41 -124 -12 -20 -32
-74 -45 -121 -14 -47 -36 -108 -50 -137 -23 -48 -24 -58 -16 -132 l8 -79 -64
-4 c-61 -3 -65 -2 -78 24 -8 15 -36 37 -69 53 -45 22 -53 30 -44 41 6 8 20 14
30 14 14 0 19 7 19 26 0 24 -3 26 -34 22 -34 -4 -35 -4 -51 57 -25 86 -60 161
-90 191 -26 26 -27 27 -10 59 17 30 17 33 -1 60 -11 16 -24 56 -31 88 -7 33
-19 67 -28 77 -14 15 -14 18 0 30 8 7 15 24 15 37 0 19 -8 28 -40 40 -36 15
-40 19 -40 52 0 20 -7 49 -15 65 -10 19 -13 41 -9 63 5 27 2 39 -14 56 -12 12
-41 88 -67 171 -46 150 -66 197 -91 227 -9 10 -12 27 -8 47 5 25 14 34 43 43
61 20 91 41 91 66 0 22 -3 23 -93 23 l-93 0 -34 69 c-26 54 -31 73 -22 84 9
10 9 16 0 25 -8 8 -19 7 -40 -6 -29 -17 -30 -17 -59 16 -19 21 -29 43 -29 65
-1 49 -33 110 -76 143 -106 82 -174 96 -217 44 -14 -16 -28 -43 -31 -60 -3
-16 -9 -43 -12 -60 -4 -24 -11 -30 -30 -30 -53 0 -94 -35 -94 -81 0 -23 -15
-24 -112 -4 -163 34 -269 80 -348 150 -28 25 -57 45 -64 45 -18 0 -46 33 -46
54 0 9 -6 18 -12 20 -95 26 -138 42 -165 62 -23 17 -45 24 -77 24 -44 0 -46
-1 -46 -27 0 -16 9 -39 20 -53 28 -36 25 -43 -20 -37 -26 3 -115 50 -275 145
l-236 140 -53 -12 c-49 -12 -55 -11 -86 11 -34 22 -40 23 -240 21 -113 0 -365
-6 -560 -13z m273 -456 l57 -12 0 -41 c0 -23 -4 -46 -9 -51 -6 -6 1 -60 20
-145 23 -102 27 -139 19 -155 -17 -34 -29 -117 -18 -134 6 -11 3 -44 -11 -106
l-20 -89 24 -24 c13 -13 28 -36 34 -53 l10 -29 -53 0 c-28 0 -57 5 -64 12 -9
9 -17 7 -35 -10 -32 -30 -48 -28 -139 20 -104 56 -176 121 -219 200 -34 63
-34 63 -34 198 0 118 3 141 22 182 30 65 103 140 192 199 83 54 115 60 224 38z
m613 -181 c10 -22 29 -48 42 -59 l25 -19 -23 0 c-19 0 -22 -4 -18 -35 4 -33 2
-35 -29 -41 -28 -5 -33 -10 -33 -34 0 -35 13 -40 113 -47 l77 -6 0 -68 c0 -65
-1 -69 -22 -69 -17 0 -33 -16 -61 -59 -45 -70 -153 -176 -199 -195 -73 -30
-78 -30 -78 1 0 29 -47 114 -70 128 -8 5 -2 18 21 41 30 31 32 36 22 67 -6 20
-6 42 -1 57 5 14 8 39 6 57 -4 48 47 103 96 103 33 0 36 2 36 30 0 22 -5 30
-18 30 -45 0 -84 65 -51 86 7 4 9 22 6 44 -4 34 -2 39 27 52 28 14 34 14 73
-5 29 -14 46 -31 59 -59z m877 21 c18 -8 23 -17 19 -35 -4 -22 -1 -24 34 -24
23 0 49 8 64 20 19 15 40 19 85 19 63 -1 52 -10 -26 -23 -23 -4 -48 -20 -74
-46 l-38 -39 43 -65 c40 -63 69 -82 85 -56 3 6 34 10 69 10 54 0 66 -3 86 -25
19 -20 21 -28 12 -37 -10 -10 -17 -10 -32 0 -27 17 -30 16 -30 -13 l0 -26 -37
26 c-24 16 -51 25 -75 25 -37 0 -38 -1 -38 -38 0 -29 -10 -54 -41 -98 -23 -32
-44 -61 -47 -64 -5 -5 1 38 14 98 7 33 6 33 -27 30 -27 -2 -35 -8 -37 -26 -3
-23 -4 -23 -23 -6 -17 15 -25 16 -50 7 -29 -11 -31 -10 -60 30 -27 37 -30 48
-24 85 6 42 6 42 -24 42 -27 0 -31 3 -31 29 0 35 25 60 42 43 7 -7 20 -12 30
-12 14 0 18 11 20 62 3 60 4 62 35 70 18 5 34 17 38 28 7 23 7 23 38 9z
m-1628 -1239 l42 0 13 -145 c9 -102 10 -156 2 -185 -6 -26 -6 -42 0 -46 6 -4
6 -10 -1 -17 -14 -14 -14 -56 0 -114 9 -34 9 -58 1 -94 -9 -37 -9 -69 -1 -125
8 -53 9 -78 1 -83 -5 -3 -18 -25 -27 -49 -10 -23 -29 -51 -42 -62 -25 -19 -26
-34 -7 -84 4 -11 0 -16 -13 -16 -25 0 -69 45 -54 55 21 12 11 25 -19 25 -16 0
-30 5 -30 10 0 15 -36 12 -50 -5 -7 -8 -18 -15 -26 -15 -17 0 -87 144 -84 173
7 93 8 501 1 546 l-9 56 55 68 c86 105 108 120 161 113 25 -3 64 -6 87 -6z
m2831 -111 c3 -6 1 -16 -5 -22 -15 -15 -14 -120 1 -135 7 -7 20 -12 30 -12 15
0 18 -9 18 -50 0 -41 8 -65 41 -122 35 -63 39 -75 28 -94 -7 -13 -9 -40 -6
-64 l5 -40 -32 19 -32 20 -38 -37 c-29 -31 -42 -38 -65 -34 -30 4 -50 -13 -33
-30 6 -6 0 -35 -20 -86 -18 -48 -27 -87 -24 -103 6 -29 -26 -70 -39 -50 -3 6
-4 15 -1 20 3 5 1 47 -6 95 -8 64 -8 89 1 100 9 11 7 26 -10 67 -19 49 -20 60
-10 124 18 109 41 183 67 210 30 32 32 65 4 65 -18 0 -20 7 -20 54 l0 53 44
17 c25 9 50 24 56 32 15 17 36 18 46 3z m-2936 -1060 c0 -24 4 -29 24 -29 28
0 41 14 50 54 4 15 9 26 13 23 5 -5 -36 -256 -43 -266 -8 -10 -34 24 -34 45 0
12 -4 25 -9 28 -4 3 -11 38 -15 77 -3 40 -9 84 -13 98 -6 23 -5 25 10 12 10
-7 17 -26 17 -42z"/>
<path d="M4390 6677 c-14 -7 -34 -29 -44 -48 l-20 -36 28 -47 c15 -25 30 -46
35 -46 8 0 151 109 151 115 0 8 -99 75 -111 75 -8 0 -25 -6 -39 -13z"/>
<path d="M170 6565 c-27 -32 14 -82 48 -57 27 19 42 25 49 18 4 -3 1 -12 -5
-18 -16 -16 -16 -108 1 -108 20 0 70 37 83 62 8 13 13 33 14 46 0 18 6 22 30
22 22 0 30 -5 30 -18 0 -10 -5 -23 -12 -30 -9 -9 -8 -15 8 -27 33 -25 38 -20
49 57 l7 45 -58 11 c-84 17 -229 16 -244 -3z"/>
<path d="M5222 6347 c-32 -18 -50 -48 -58 -96 l-7 -41 65 0 c87 0 97 11 77 88
-16 62 -34 73 -77 49z"/>
<path d="M54 6183 c4 -54 13 -111 20 -128 18 -43 71 -85 107 -85 25 0 29 4 29
27 0 19 -15 42 -50 78 l-50 50 21 42 c11 23 29 45 40 48 12 4 19 15 19 30 0
29 -16 41 -34 26 -10 -8 -22 -8 -40 -1 -15 5 -37 10 -48 10 -20 0 -21 -3 -14
-97z"/>
<path d="M140 5696 c0 -1 5 -17 11 -35 8 -23 8 -48 0 -95 -8 -47 -8 -72 0 -97
7 -19 13 -35 15 -37 8 -11 47 25 70 64 l27 46 -17 61 c-21 74 -39 97 -78 97
-15 0 -28 -2 -28 -4z"/>
<path d="M310 5461 c0 -26 6 -31 51 -47 28 -11 54 -26 57 -34 10 -28 35 -50
59 -50 12 0 23 -4 23 -10 0 -5 -7 -10 -15 -10 -9 0 -36 -21 -61 -46 -34 -35
-44 -53 -42 -73 5 -42 30 -31 96 44 60 68 62 72 62 125 0 52 -3 59 -38 93 -37
36 -40 37 -115 37 l-77 0 0 -29z"/>
<path d="M4746 2548 c-4 -24 -9 -177 -12 -340 l-6 -298 26 0 c20 0 27 6 32 28
12 58 36 128 55 160 25 43 25 41 -13 285 -30 197 -33 207 -54 207 -18 0 -23
-7 -28 -42z"/>
<path d="M3982 2247 c-35 -36 -42 -49 -42 -83 0 -32 6 -46 34 -73 28 -27 40
-32 72 -29 l39 3 -1 60 c0 56 -35 165 -53 165 -4 0 -26 -19 -49 -43z"/>
<path d="M3831 2136 c-9 -11 -7 -27 9 -69 31 -83 56 -110 96 -105 30 4 34 1
48 -36 11 -28 13 -43 5 -52 -15 -18 -24 -130 -11 -138 5 -3 26 14 46 38 33 40
35 47 25 75 -8 23 -8 44 1 82 7 27 11 51 9 53 -2 1 -26 11 -53 20 -61 23 -112
67 -126 111 -12 37 -30 44 -49 21z"/>
<path d="M1210 1919 c0 -6 5 -19 10 -30 9 -15 6 -26 -10 -48 -11 -16 -20 -35
-20 -43 0 -7 31 -92 69 -189 60 -155 68 -182 64 -226 -6 -53 15 -103 43 -103
20 0 44 41 44 77 0 23 5 33 15 33 9 0 15 -9 15 -25 0 -21 5 -25 30 -25 22 0
30 5 30 18 0 31 -57 111 -84 118 -21 5 -32 27 -81 157 -40 105 -58 168 -59
204 -1 35 -7 58 -20 72 -20 22 -46 28 -46 10z"/>
<path d="M2211 1627 l-22 -24 41 -28 42 -29 -7 -59 -7 -60 30 5 c37 5 37 3 48
-139 6 -86 5 -93 -12 -93 -11 0 -26 -5 -34 -10 -12 -8 -3 -22 50 -75 53 -54
60 -65 40 -60 -14 3 -38 1 -53 -4 -22 -9 -27 -17 -27 -45 0 -43 14 -48 85 -34
51 10 55 13 55 39 0 18 -6 29 -17 32 -17 4 -17 5 0 6 12 1 17 10 17 30 0 34
-23 61 -51 61 -14 0 -19 7 -19 30 0 29 13 40 25 20 3 -5 15 -10 27 -10 19 0
20 4 15 93 -6 104 -31 181 -79 248 -33 47 -108 129 -118 129 -4 0 -16 -11 -29
-23z"/>
<path d="M1722 1470 c-20 -9 -22 -16 -21 -72 1 -35 6 -86 12 -115 7 -38 7 -56
-2 -66 -8 -11 -9 -22 -1 -41 13 -36 13 -36 -11 -36 -55 0 -76 -41 -38 -76 15
-14 24 -16 37 -8 31 19 80 103 91 155 11 48 10 54 -11 76 l-22 23 22 30 c24
31 28 55 12 65 -6 4 -5 13 2 25 9 14 9 22 -1 34 -15 18 -35 19 -69 6z"/>
<path d="M1302 1258 c-8 -8 -8 -15 -1 -24 7 -9 5 -32 -10 -79 -14 -49 -17 -74
-10 -92 7 -18 6 -30 -2 -40 -10 -11 -7 -19 13 -40 32 -32 64 -24 73 17 5 21
13 30 26 30 14 0 19 7 19 26 0 21 -4 25 -20 21 -18 -5 -20 0 -20 49 0 53 1 55
30 61 44 8 39 38 -10 63 -45 23 -71 25 -88 8z"/>
<path d="M1984 1085 c-4 -8 -2 -21 4 -28 5 -6 22 -64 37 -127 15 -63 38 -143
51 -176 18 -45 22 -68 15 -85 -6 -17 -3 -38 11 -74 11 -27 22 -53 26 -57 4 -3
23 14 42 39 19 26 30 48 24 50 -7 2 -8 20 -1 57 10 52 9 55 -21 92 -38 46 -43
84 -10 84 l21 0 -22 24 c-21 23 -22 27 -11 81 14 67 8 77 -65 111 -58 27 -93
30 -101 9z"/>
<path d="M2202 978 c-16 -16 43 -78 74 -78 17 0 24 -9 33 -45 10 -38 15 -45
36 -45 23 0 25 4 25 45 0 55 21 61 50 13 24 -40 25 -48 5 -48 -9 0 -15 -9 -15
-25 0 -21 5 -25 30 -25 18 0 30 -5 30 -13 0 -20 -30 -57 -46 -57 -21 0 -19
-57 4 -63 9 -3 -6 -5 -34 -6 -55 -1 -78 -17 -72 -48 3 -14 13 -18 46 -18 34 0
42 -3 42 -19 0 -10 22 -44 50 -76 l50 -57 -101 -8 c-72 -5 -104 -3 -114 5 -12
10 -15 9 -15 -7 0 -10 36 -54 80 -98 66 -66 83 -78 97 -69 27 17 26 28 -7 69
-17 21 -28 40 -26 43 3 2 26 -3 52 -12 79 -27 114 -17 114 31 0 23 26 56 51
65 29 11 -8 43 -66 59 -35 9 -54 18 -47 23 7 4 12 18 12 32 0 22 -4 24 -43 24
-43 0 -43 1 -39 30 4 29 6 30 26 17 62 -41 66 -42 84 -31 19 12 19 47 0 119
-11 46 -34 75 -58 75 -13 0 -16 10 -16 53 1 65 -29 131 -62 135 -12 2 -43 -8
-69 -23 l-47 -26 -36 36 c-38 37 -58 43 -78 23z"/>
<path d="M1669 968 c0 -2 -2 -36 -4 -76 -3 -52 1 -87 15 -126 l18 -54 -30 -42
c-31 -42 -32 -46 -12 -137 6 -31 5 -33 -23 -33 -27 0 -31 4 -51 68 -16 51 -22
93 -22 163 0 87 -2 97 -23 117 -24 22 -67 30 -67 12 0 -5 14 -25 30 -44 18
-20 26 -37 20 -41 -5 -3 -10 -34 -10 -69 l0 -62 -71 -17 c-40 -10 -73 -16 -75
-14 -2 2 -6 17 -10 33 -7 36 31 88 71 98 21 5 25 12 25 41 0 32 -2 35 -30 35
-25 0 -30 4 -30 23 0 27 -26 67 -44 67 -7 0 -23 -11 -36 -25 l-23 -25 11 -187
c7 -118 18 -210 29 -248 9 -33 17 -85 18 -116 0 -41 5 -63 19 -78 18 -20 29
-21 186 -21 188 0 189 0 228 88 18 41 18 45 2 132 -12 64 -16 125 -13 216 4
129 -8 247 -30 293 -8 17 -22 27 -40 29 -15 2 -27 2 -28 0z"/>
</g>
</svg>
